<svg width="71" height="71" viewBox="0 0 71 71" fill="none" xmlns="http://www.w3.org/2000/svg">
<path d="M35.0182 17.9C40.6474 17.9 45.2266 22.4792 45.2266 28.1083C45.2266 33.7375 40.6474 38.3167 35.0182 38.3167C29.3891 38.3167 24.8099 33.7375 24.8099 28.1083C24.8099 22.4792 29.3891 17.9 35.0182 17.9ZM37.9349 43.8875C41.6218 43.2058 44.9534 41.2542 47.3511 38.3716C49.7488 35.4891 51.061 31.8577 51.0599 28.1083C51.0599 19.2417 43.8849 12.0667 35.0182 12.0667C26.1516 12.0667 18.9766 19.2417 18.9766 28.1083C18.9754 31.8577 20.2877 35.4891 22.6853 38.3716C25.083 41.2542 28.4147 43.2058 32.1016 43.8875V49.9833H29.1849C27.5807 49.9833 26.2682 51.2958 26.2682 52.9C26.2682 54.5042 27.5807 55.8167 29.1849 55.8167H32.1016V58.7333C32.1016 60.3375 33.4141 61.65 35.0182 61.65C36.6224 61.65 37.9349 60.3375 37.9349 58.7333V55.8167H40.8516C42.4557 55.8167 43.7682 54.5042 43.7682 52.9C43.7682 51.2958 42.4557 49.9833 40.8516 49.9833H37.9349V43.8875Z" fill="#142213"/>
</svg>
