<svg width="71" height="71" viewBox="0 0 71 71" fill="none" xmlns="http://www.w3.org/2000/svg">
<path d="M55.4336 12.0667H43.7669C42.1628 12.0667 40.8503 13.3792 40.8503 14.9833C40.8503 16.5875 42.1628 17.9 43.7669 17.9H48.3753L36.7961 29.4792C34.2294 27.7 31.1086 26.65 27.7253 26.65C18.8586 26.65 11.6836 33.825 11.6836 42.6917C11.6836 51.5583 18.8586 58.7333 27.7253 58.7333C36.5919 58.7333 43.7669 51.5583 43.7669 42.6917C43.7669 39.3083 42.7169 36.1875 40.9378 33.5917L52.5169 22.0417V26.65C52.5169 28.2542 53.8294 29.5667 55.4336 29.5667C57.0378 29.5667 58.3503 28.2542 58.3503 26.65V14.9833C58.3503 13.3792 57.0378 12.0667 55.4336 12.0667ZM27.7253 52.9C22.0961 52.9 17.5169 48.3208 17.5169 42.6917C17.5169 37.0625 22.0961 32.4833 27.7253 32.4833C33.3544 32.4833 37.9336 37.0625 37.9336 42.6917C37.9336 48.3208 33.3544 52.9 27.7253 52.9Z" fill="#142213"/>
</svg>
