<svg width="293" height="206" viewBox="0 0 293 206" fill="none" xmlns="http://www.w3.org/2000/svg">
<path d="M146.5 33.5416C144.566 33.5416 142.712 32.7734 141.344 31.4059C139.977 30.0385 139.208 28.1838 139.208 26.2499C139.208 24.316 139.977 22.4614 141.344 21.0939C142.712 19.7265 144.566 18.9583 146.5 18.9583C148.434 18.9583 150.289 19.7265 151.656 21.0939C153.024 22.4614 153.792 24.316 153.792 26.2499C153.792 27.2075 153.603 28.1557 153.237 29.0403C152.87 29.925 152.333 30.7288 151.656 31.4059C150.979 32.083 150.175 32.6201 149.291 32.9865C148.406 33.353 147.458 33.5416 146.5 33.5416ZM146.5 5.83325C141.085 5.83325 135.892 7.98429 132.063 11.8132C128.235 15.642 126.083 20.8351 126.083 26.2499C126.083 41.5624 146.5 64.1666 146.5 64.1666C146.5 64.1666 166.917 41.5624 166.917 26.2499C166.917 20.8351 164.766 15.642 160.937 11.8132C157.108 7.98429 151.915 5.83325 146.5 5.83325Z" fill="white"/>
<path d="M91.0938 115L89.1777 108.953H80.2656L78.3145 115H72.9883L81.7949 89.6348H88.0352L96.8418 115H91.0938ZM84.5898 94.9082L81.4082 104.857H88.0527L84.9062 94.9082H84.5898ZM106.545 115.299C104.916 115.299 103.51 114.895 102.326 114.086C101.154 113.277 100.246 112.123 99.6016 110.623C98.9688 109.123 98.6523 107.342 98.6523 105.279C98.6523 103.229 98.9688 101.459 99.6016 99.9707C100.246 98.4707 101.154 97.3164 102.326 96.5078C103.51 95.6992 104.916 95.2949 106.545 95.2949C107.857 95.2949 109.023 95.5996 110.043 96.209C111.062 96.8066 111.824 97.6387 112.328 98.7051H112.627V88.2109H117.742V115H112.785V111.959H112.469C111.953 113.002 111.174 113.822 110.131 114.42C109.088 115.006 107.893 115.299 106.545 115.299ZM108.285 99.584C107.371 99.584 106.586 99.8125 105.93 100.27C105.285 100.727 104.787 101.383 104.436 102.238C104.084 103.094 103.908 104.113 103.908 105.297C103.908 107.09 104.295 108.496 105.068 109.516C105.842 110.523 106.914 111.027 108.285 111.027C109.199 111.027 109.984 110.799 110.641 110.342C111.297 109.885 111.801 109.229 112.152 108.373C112.504 107.518 112.68 106.498 112.68 105.314C112.68 104.131 112.504 103.111 112.152 102.256C111.801 101.4 111.297 100.744 110.641 100.287C109.984 99.8184 109.199 99.584 108.285 99.584ZM129.994 115.299C128.365 115.299 126.959 114.895 125.775 114.086C124.604 113.277 123.695 112.123 123.051 110.623C122.418 109.123 122.102 107.342 122.102 105.279C122.102 103.229 122.418 101.459 123.051 99.9707C123.695 98.4707 124.604 97.3164 125.775 96.5078C126.959 95.6992 128.365 95.2949 129.994 95.2949C131.307 95.2949 132.473 95.5996 133.492 96.209C134.512 96.8066 135.273 97.6387 135.777 98.7051H136.076V88.2109H141.191V115H136.234V111.959H135.918C135.402 113.002 134.623 113.822 133.58 114.42C132.537 115.006 131.342 115.299 129.994 115.299ZM131.734 99.584C130.82 99.584 130.035 99.8125 129.379 100.27C128.734 100.727 128.236 101.383 127.885 102.238C127.533 103.094 127.357 104.113 127.357 105.297C127.357 107.09 127.744 108.496 128.518 109.516C129.291 110.523 130.363 111.027 131.734 111.027C132.648 111.027 133.434 110.799 134.09 110.342C134.746 109.885 135.25 109.229 135.602 108.373C135.953 107.518 136.129 106.498 136.129 105.314C136.129 104.131 135.953 103.111 135.602 102.256C135.25 101.4 134.746 100.744 134.09 100.287C133.434 99.8184 132.648 99.584 131.734 99.584ZM146.5 115V95.6113H151.457V98.7051H151.773C151.938 98.0605 152.254 97.4805 152.723 96.9648C153.203 96.4492 153.789 96.0449 154.48 95.752C155.172 95.4473 155.928 95.2949 156.748 95.2949C157.1 95.2949 157.463 95.3184 157.838 95.3652C158.225 95.4004 158.529 95.459 158.752 95.541V100.199C158.623 100.152 158.418 100.105 158.137 100.059C157.855 100 157.551 99.959 157.223 99.9355C156.895 99.9004 156.596 99.8828 156.326 99.8828C155.4 99.8828 154.58 100.059 153.865 100.41C153.162 100.762 152.611 101.266 152.213 101.922C151.814 102.578 151.615 103.357 151.615 104.26V115H146.5ZM170.107 99.1094C169.322 99.1094 168.619 99.2852 167.998 99.6367C167.389 99.9766 166.896 100.463 166.521 101.096C166.158 101.717 165.947 102.443 165.889 103.275H174.15C174.092 101.998 173.699 100.984 172.973 100.234C172.258 99.4844 171.303 99.1094 170.107 99.1094ZM174.256 109.48H179.02C178.762 110.699 178.234 111.754 177.438 112.645C176.652 113.523 175.639 114.209 174.396 114.701C173.154 115.182 171.742 115.422 170.16 115.422C168.191 115.422 166.504 115.023 165.098 114.227C163.703 113.43 162.631 112.287 161.881 110.799C161.143 109.299 160.773 107.5 160.773 105.402C160.773 103.293 161.148 101.477 161.898 99.9531C162.648 98.4297 163.721 97.2578 165.115 96.4375C166.51 95.6055 168.168 95.1895 170.09 95.1895C171.988 95.1895 173.617 95.582 174.977 96.3672C176.336 97.1406 177.373 98.2598 178.088 99.7246C178.814 101.178 179.178 102.93 179.178 104.98V106.545H165.871V106.809C165.906 108.25 166.316 109.393 167.102 110.236C167.898 111.068 168.965 111.484 170.301 111.484C171.309 111.484 172.152 111.314 172.832 110.975C173.512 110.623 173.986 110.125 174.256 109.48ZM182.939 101.307C182.939 100.076 183.273 99.0039 183.941 98.0898C184.621 97.1758 185.564 96.4668 186.771 95.9629C187.979 95.4473 189.391 95.1895 191.008 95.1895C193.469 95.1895 195.396 95.6875 196.791 96.6836C198.197 97.6797 198.971 99.1035 199.111 100.955H194.383C194.254 100.334 193.902 99.8418 193.328 99.4785C192.754 99.1152 191.992 98.9336 191.043 98.9336C190.434 98.9336 189.889 99.0215 189.408 99.1973C188.928 99.3613 188.547 99.6016 188.266 99.918C187.996 100.223 187.861 100.58 187.861 100.99C187.861 101.471 188.072 101.863 188.494 102.168C188.928 102.473 189.59 102.725 190.48 102.924L194.119 103.715C196.006 104.125 197.383 104.752 198.25 105.596C199.129 106.428 199.568 107.57 199.568 109.023C199.568 110.312 199.205 111.438 198.479 112.398C197.764 113.359 196.768 114.104 195.49 114.631C194.213 115.158 192.725 115.422 191.025 115.422C188.471 115.422 186.449 114.918 184.961 113.91C183.473 112.902 182.641 111.467 182.465 109.604H187.457C187.645 110.26 188.049 110.77 188.67 111.133C189.291 111.496 190.111 111.678 191.131 111.678C192.127 111.678 192.936 111.49 193.557 111.115C194.178 110.729 194.488 110.225 194.488 109.604C194.488 109.123 194.295 108.736 193.908 108.443C193.521 108.139 192.9 107.893 192.045 107.705L188.529 106.914C186.643 106.504 185.236 105.842 184.311 104.928C183.396 104.002 182.939 102.795 182.939 101.307ZM202.979 101.307C202.979 100.076 203.312 99.0039 203.98 98.0898C204.66 97.1758 205.604 96.4668 206.811 95.9629C208.018 95.4473 209.43 95.1895 211.047 95.1895C213.508 95.1895 215.436 95.6875 216.83 96.6836C218.236 97.6797 219.01 99.1035 219.15 100.955H214.422C214.293 100.334 213.941 99.8418 213.367 99.4785C212.793 99.1152 212.031 98.9336 211.082 98.9336C210.473 98.9336 209.928 99.0215 209.447 99.1973C208.967 99.3613 208.586 99.6016 208.305 99.918C208.035 100.223 207.9 100.58 207.9 100.99C207.9 101.471 208.111 101.863 208.533 102.168C208.967 102.473 209.629 102.725 210.52 102.924L214.158 103.715C216.045 104.125 217.422 104.752 218.289 105.596C219.168 106.428 219.607 107.57 219.607 109.023C219.607 110.312 219.244 111.438 218.518 112.398C217.803 113.359 216.807 114.104 215.529 114.631C214.252 115.158 212.764 115.422 211.064 115.422C208.51 115.422 206.488 114.918 205 113.91C203.512 112.902 202.68 111.467 202.504 109.604H207.496C207.684 110.26 208.088 110.77 208.709 111.133C209.33 111.496 210.15 111.678 211.17 111.678C212.166 111.678 212.975 111.49 213.596 111.115C214.217 110.729 214.527 110.225 214.527 109.604C214.527 109.123 214.334 108.736 213.947 108.443C213.561 108.139 212.939 107.893 212.084 107.705L208.568 106.914C206.682 106.504 205.275 105.842 204.35 104.928C203.436 104.002 202.979 102.795 202.979 101.307Z" fill="white"/>
<path d="M30.1621 152.789V154H21.7734V139.908H23.1113V152.789H30.1621ZM36.4512 154.176C33.5117 154.176 31.6758 152.096 31.6758 148.736C31.6758 145.377 33.5117 143.307 36.4512 143.307C39.3906 143.307 41.2363 145.377 41.2363 148.736C41.2363 152.096 39.3906 154.176 36.4512 154.176ZM36.4512 153.014C38.6191 153.014 39.9082 151.402 39.9082 148.736C39.9082 146.07 38.6191 144.459 36.4512 144.459C34.2832 144.459 32.9941 146.07 32.9941 148.736C32.9941 151.402 34.2832 153.014 36.4512 153.014ZM44 154V143.482H45.2207V145.211H45.3477C45.6992 144.068 46.8809 143.307 48.2773 143.307C48.6289 143.307 48.9805 143.326 49.2637 143.395V144.674C49.0293 144.605 48.502 144.547 48.1211 144.547C46.4902 144.547 45.2793 145.777 45.2793 147.438V154H44ZM55.2891 144.439C53.375 144.439 52.0469 145.855 51.9297 148.023H58.4824C58.4531 145.855 57.1934 144.439 55.2891 144.439ZM58.3555 151.402H59.6543C59.1367 153.111 57.5156 154.176 55.3086 154.176C52.418 154.176 50.6016 152.066 50.6016 148.746C50.6016 145.445 52.4375 143.307 55.2988 143.307C58.1016 143.307 59.8203 145.299 59.8203 148.512V149.078H51.9199V149.137C51.9883 151.51 53.3066 153.033 55.3379 153.033C56.832 153.033 57.9062 152.438 58.3555 151.402ZM62.5938 154V143.482H63.8145V145.377H63.9414C64.4004 144.088 65.5234 143.307 66.9785 143.307C68.4531 143.307 69.5078 144.117 69.957 145.377H70.084C70.6211 144.117 71.8516 143.307 73.3652 143.307C75.4746 143.307 76.6953 144.576 76.6953 146.803V154H75.416V147.096C75.416 145.377 74.5664 144.459 72.9844 144.459C71.3633 144.459 70.2793 145.699 70.2793 147.33V154H69V146.959C69 145.445 68.0332 144.459 66.5781 144.459C65.0547 144.459 63.873 145.826 63.873 147.545V154H62.5938ZM85.3672 154V143.482H86.6465V154H85.3672ZM86.002 141.139C85.4844 141.139 85.0547 140.709 85.0547 140.182C85.0547 139.664 85.4844 139.234 86.002 139.234C86.5293 139.234 86.959 139.664 86.959 140.182C86.959 140.709 86.5293 141.139 86.002 141.139ZM94.9375 143.307C97.6035 143.307 99.3613 145.465 99.3613 148.736C99.3613 152.008 97.5938 154.176 94.9375 154.176C93.3066 154.176 91.9785 153.355 91.3926 151.998H91.2754V157.486H89.9961V143.482H91.2168V145.631H91.334C91.9785 144.195 93.3359 143.307 94.9375 143.307ZM94.6543 153.014C96.7344 153.014 98.043 151.363 98.043 148.746C98.043 146.119 96.7344 144.459 94.6641 144.459C92.6035 144.459 91.2363 146.158 91.2363 148.736C91.2363 151.314 92.6035 153.014 94.6543 153.014ZM101.881 146.266C101.881 144.576 103.561 143.307 105.68 143.307C107.799 143.307 109.303 144.361 109.537 146.031H108.277C108.043 145.045 107.066 144.4 105.67 144.4C104.293 144.4 103.17 145.162 103.17 146.217C103.17 147.086 103.854 147.584 105.26 147.916L106.705 148.258C108.736 148.746 109.723 149.566 109.723 151.09C109.723 152.906 107.955 154.176 105.66 154.176C103.365 154.176 101.773 153.092 101.559 151.363H102.887C103.17 152.418 104.176 153.082 105.699 153.082C107.242 153.082 108.404 152.291 108.404 151.188C108.404 150.27 107.75 149.732 106.344 149.4L104.752 149.02C102.799 148.551 101.881 147.75 101.881 146.266ZM120.807 143.482V154H119.586V152.105H119.469C118.941 153.414 117.721 154.176 116.041 154.176C113.697 154.176 112.369 152.73 112.369 150.318V143.482H113.648V149.996C113.648 151.959 114.566 153.004 116.373 153.004C118.336 153.004 119.527 151.725 119.527 149.732V143.482H120.807ZM124.117 154V143.482H125.338V145.377H125.465C125.924 144.088 127.047 143.307 128.502 143.307C129.977 143.307 131.031 144.117 131.48 145.377H131.607C132.145 144.117 133.375 143.307 134.889 143.307C136.998 143.307 138.219 144.576 138.219 146.803V154H136.939V147.096C136.939 145.377 136.09 144.459 134.508 144.459C132.887 144.459 131.803 145.699 131.803 147.33V154H130.523V146.959C130.523 145.445 129.557 144.459 128.102 144.459C126.578 144.459 125.396 145.826 125.396 147.545V154H124.117ZM150.758 154.176C148.072 154.176 146.305 152.008 146.305 148.746C146.305 145.484 148.092 143.307 150.758 143.307C152.359 143.307 153.707 144.156 154.303 145.533H154.42V139.293H155.699V154H154.469V151.9H154.352C153.727 153.307 152.369 154.176 150.758 154.176ZM151.031 144.459C148.951 144.459 147.623 146.129 147.623 148.736C147.623 151.354 148.951 153.014 151.031 153.014C153.102 153.014 154.439 151.334 154.439 148.736C154.439 146.158 153.092 144.459 151.031 144.459ZM163.346 154.176C160.406 154.176 158.57 152.096 158.57 148.736C158.57 145.377 160.406 143.307 163.346 143.307C166.285 143.307 168.131 145.377 168.131 148.736C168.131 152.096 166.285 154.176 163.346 154.176ZM163.346 153.014C165.514 153.014 166.803 151.402 166.803 148.736C166.803 146.07 165.514 144.459 163.346 144.459C161.178 144.459 159.889 146.07 159.889 148.736C159.889 151.402 161.178 153.014 163.346 153.014ZM170.992 154V139.293H172.271V154H170.992ZM179.928 154.176C176.988 154.176 175.152 152.096 175.152 148.736C175.152 145.377 176.988 143.307 179.928 143.307C182.867 143.307 184.713 145.377 184.713 148.736C184.713 152.096 182.867 154.176 179.928 154.176ZM179.928 153.014C182.096 153.014 183.385 151.402 183.385 148.736C183.385 146.07 182.096 144.459 179.928 144.459C177.76 144.459 176.471 146.07 176.471 148.736C176.471 151.402 177.76 153.014 179.928 153.014ZM187.477 154V143.482H188.697V145.211H188.824C189.176 144.068 190.357 143.307 191.754 143.307C192.105 143.307 192.457 143.326 192.74 143.395V144.674C192.506 144.605 191.979 144.547 191.598 144.547C189.967 144.547 188.756 145.777 188.756 147.438V154H187.477ZM200.104 146.266C200.104 144.576 201.783 143.307 203.902 143.307C206.021 143.307 207.525 144.361 207.76 146.031H206.5C206.266 145.045 205.289 144.4 203.893 144.4C202.516 144.4 201.393 145.162 201.393 146.217C201.393 147.086 202.076 147.584 203.482 147.916L204.928 148.258C206.959 148.746 207.945 149.566 207.945 151.09C207.945 152.906 206.178 154.176 203.883 154.176C201.588 154.176 199.996 153.092 199.781 151.363H201.109C201.393 152.418 202.398 153.082 203.922 153.082C205.465 153.082 206.627 152.291 206.627 151.188C206.627 150.27 205.973 149.732 204.566 149.4L202.975 149.02C201.021 148.551 200.104 147.75 200.104 146.266ZM210.738 154V143.482H212.018V154H210.738ZM211.373 141.139C210.855 141.139 210.426 140.709 210.426 140.182C210.426 139.664 210.855 139.234 211.373 139.234C211.9 139.234 212.33 139.664 212.33 140.182C212.33 140.709 211.9 141.139 211.373 141.139ZM216.031 140.748H217.311V143.482H219.742V144.566H217.311V151.09C217.311 152.379 217.799 152.926 218.98 152.926C219.186 152.926 219.527 152.916 219.742 152.896V153.99C219.518 154.029 219.068 154.059 218.844 154.059C216.832 154.059 216.031 153.297 216.031 151.383V144.566H214.312V143.482H216.031V140.748ZM230.992 153.043C232.877 153.043 234.312 151.754 234.312 150.084V148.854L231.197 149.078C229.41 149.205 228.551 149.869 228.551 151.07C228.551 152.281 229.576 153.043 230.992 153.043ZM230.777 154.176C228.717 154.176 227.232 152.975 227.232 151.09C227.232 149.254 228.59 148.189 231.021 148.023L234.312 147.809V146.793C234.312 145.289 233.404 144.449 231.695 144.449C230.25 144.449 229.205 145.064 228.951 146.08H227.652C227.896 144.41 229.527 143.307 231.734 143.307C234.205 143.307 235.602 144.596 235.602 146.783V154H234.371V152.193H234.254C233.609 153.443 232.32 154.176 230.777 154.176ZM238.844 154V143.482H240.064V145.377H240.191C240.65 144.088 241.773 143.307 243.229 143.307C244.703 143.307 245.758 144.117 246.207 145.377H246.334C246.871 144.117 248.102 143.307 249.615 143.307C251.725 143.307 252.945 144.576 252.945 146.803V154H251.666V147.096C251.666 145.377 250.816 144.459 249.234 144.459C247.613 144.459 246.529 145.699 246.529 147.33V154H245.25V146.959C245.25 145.445 244.283 144.459 242.828 144.459C241.305 144.459 240.123 145.826 240.123 147.545V154H238.844ZM260.309 144.439C258.395 144.439 257.066 145.855 256.949 148.023H263.502C263.473 145.855 262.213 144.439 260.309 144.439ZM263.375 151.402H264.674C264.156 153.111 262.535 154.176 260.328 154.176C257.438 154.176 255.621 152.066 255.621 148.746C255.621 145.445 257.457 143.307 260.318 143.307C263.121 143.307 264.84 145.299 264.84 148.512V149.078H256.939V149.137C257.008 151.51 258.326 153.033 260.357 153.033C261.852 153.033 262.926 152.438 263.375 151.402ZM268.277 140.748H269.557V143.482H271.988V144.566H269.557V151.09C269.557 152.379 270.045 152.926 271.227 152.926C271.432 152.926 271.773 152.916 271.988 152.896V153.99C271.764 154.029 271.314 154.059 271.09 154.059C269.078 154.059 268.277 153.297 268.277 151.383V144.566H266.559V143.482H268.277V140.748ZM24.3223 170.578H23.0234C22.7012 169.367 21.6172 168.459 20.0059 168.459C17.916 168.459 16.5879 170.109 16.5879 172.707C16.5879 175.334 17.9258 177.014 20.0059 177.014C21.5586 177.014 22.6914 176.262 23.0137 174.973H24.3125C23.9902 176.857 22.418 178.176 20.0156 178.176C17.1152 178.176 15.2695 176.047 15.2695 172.707C15.2695 169.416 17.1055 167.307 20.0059 167.307C22.418 167.307 24.0098 168.742 24.3223 170.578ZM31.2363 178.176C28.2969 178.176 26.4609 176.096 26.4609 172.736C26.4609 169.377 28.2969 167.307 31.2363 167.307C34.1758 167.307 36.0215 169.377 36.0215 172.736C36.0215 176.096 34.1758 178.176 31.2363 178.176ZM31.2363 177.014C33.4043 177.014 34.6934 175.402 34.6934 172.736C34.6934 170.07 33.4043 168.459 31.2363 168.459C29.0684 168.459 27.7793 170.07 27.7793 172.736C27.7793 175.402 29.0684 177.014 31.2363 177.014ZM38.7852 178V167.482H40.0059V169.377H40.1328C40.6895 168.078 41.8516 167.307 43.5312 167.307C45.875 167.307 47.2129 168.713 47.2129 171.164V178H45.9336V171.486C45.9336 169.484 45.0156 168.459 43.1895 168.459C41.334 168.459 40.0645 169.768 40.0645 171.75V178H38.7852ZM50.1816 170.266C50.1816 168.576 51.8613 167.307 53.9805 167.307C56.0996 167.307 57.6035 168.361 57.8379 170.031H56.5781C56.3438 169.045 55.3672 168.4 53.9707 168.4C52.5938 168.4 51.4707 169.162 51.4707 170.217C51.4707 171.086 52.1543 171.584 53.5605 171.916L55.0059 172.258C57.0371 172.746 58.0234 173.566 58.0234 175.09C58.0234 176.906 56.2559 178.176 53.9609 178.176C51.666 178.176 50.0742 177.092 49.8594 175.363H51.1875C51.4707 176.418 52.4766 177.082 54 177.082C55.543 177.082 56.7051 176.291 56.7051 175.188C56.7051 174.27 56.0508 173.732 54.6445 173.4L53.0527 173.02C51.0996 172.551 50.1816 171.75 50.1816 170.266ZM64.918 168.439C63.0039 168.439 61.6758 169.855 61.5586 172.023H68.1113C68.082 169.855 66.8223 168.439 64.918 168.439ZM67.9844 175.402H69.2832C68.7656 177.111 67.1445 178.176 64.9375 178.176C62.0469 178.176 60.2305 176.066 60.2305 172.746C60.2305 169.445 62.0664 167.307 64.9277 167.307C67.7305 167.307 69.4492 169.299 69.4492 172.512V173.078H61.5488V173.137C61.6172 175.51 62.9355 177.033 64.9668 177.033C66.4609 177.033 67.5352 176.438 67.9844 175.402ZM80.748 170.578H79.4492C79.127 169.367 78.043 168.459 76.4316 168.459C74.3418 168.459 73.0137 170.109 73.0137 172.707C73.0137 175.334 74.3516 177.014 76.4316 177.014C77.9844 177.014 79.1172 176.262 79.4395 174.973H80.7383C80.416 176.857 78.8438 178.176 76.4414 178.176C73.541 178.176 71.6953 176.047 71.6953 172.707C71.6953 169.416 73.5312 167.307 76.4316 167.307C78.8438 167.307 80.4355 168.742 80.748 170.578ZM84.2148 164.748H85.4941V167.482H87.9258V168.566H85.4941V175.09C85.4941 176.379 85.9824 176.926 87.1641 176.926C87.3691 176.926 87.7109 176.916 87.9258 176.896V177.99C87.7012 178.029 87.252 178.059 87.0273 178.059C85.0156 178.059 84.2148 177.297 84.2148 175.383V168.566H82.4961V167.482H84.2148V164.748ZM94.5859 168.439C92.6719 168.439 91.3438 169.855 91.2266 172.023H97.7793C97.75 169.855 96.4902 168.439 94.5859 168.439ZM97.6523 175.402H98.9512C98.4336 177.111 96.8125 178.176 94.6055 178.176C91.7148 178.176 89.8984 176.066 89.8984 172.746C89.8984 169.445 91.7344 167.307 94.5957 167.307C97.3984 167.307 99.1172 169.299 99.1172 172.512V173.078H91.2168V173.137C91.2852 175.51 92.6035 177.033 94.6348 177.033C96.1289 177.033 97.2031 176.438 97.6523 175.402ZM102.555 164.748H103.834V167.482H106.266V168.566H103.834V175.09C103.834 176.379 104.322 176.926 105.504 176.926C105.709 176.926 106.051 176.916 106.266 176.896V177.99C106.041 178.029 105.592 178.059 105.367 178.059C103.355 178.059 102.555 177.297 102.555 175.383V168.566H100.836V167.482H102.555V164.748ZM117.311 167.482V178H116.09V176.105H115.973C115.445 177.414 114.225 178.176 112.545 178.176C110.201 178.176 108.873 176.73 108.873 174.318V167.482H110.152V173.996C110.152 175.959 111.07 177.004 112.877 177.004C114.84 177.004 116.031 175.725 116.031 173.732V167.482H117.311ZM120.621 178V167.482H121.842V169.211H121.969C122.32 168.068 123.502 167.307 124.898 167.307C125.25 167.307 125.602 167.326 125.885 167.395V168.674C125.65 168.605 125.123 168.547 124.742 168.547C123.111 168.547 121.9 169.777 121.9 171.438V178H120.621ZM128.023 178.078C127.447 178.078 126.988 177.619 126.988 177.053C126.988 176.477 127.447 176.018 128.023 176.018C128.6 176.018 129.049 176.477 129.049 177.053C129.049 177.619 128.6 178.078 128.023 178.078ZM139.479 178H138.141V163.908H139.479V178ZM147.887 167.307C150.553 167.307 152.311 169.465 152.311 172.736C152.311 176.008 150.543 178.176 147.887 178.176C146.256 178.176 144.928 177.355 144.342 175.998H144.225V181.486H142.945V167.482H144.166V169.631H144.283C144.928 168.195 146.285 167.307 147.887 167.307ZM147.604 177.014C149.684 177.014 150.992 175.363 150.992 172.746C150.992 170.119 149.684 168.459 147.613 168.459C145.553 168.459 144.186 170.158 144.186 172.736C144.186 175.314 145.553 177.014 147.604 177.014ZM154.83 170.266C154.83 168.576 156.51 167.307 158.629 167.307C160.748 167.307 162.252 168.361 162.486 170.031H161.227C160.992 169.045 160.016 168.4 158.619 168.4C157.242 168.4 156.119 169.162 156.119 170.217C156.119 171.086 156.803 171.584 158.209 171.916L159.654 172.258C161.686 172.746 162.672 173.566 162.672 175.09C162.672 176.906 160.904 178.176 158.609 178.176C156.314 178.176 154.723 177.092 154.508 175.363H155.836C156.119 176.418 157.125 177.082 158.648 177.082C160.191 177.082 161.354 176.291 161.354 175.188C161.354 174.27 160.699 173.732 159.293 173.4L157.701 173.02C155.748 172.551 154.83 171.75 154.83 170.266ZM173.756 167.482V178H172.535V176.105H172.418C171.891 177.414 170.67 178.176 168.99 178.176C166.646 178.176 165.318 176.73 165.318 174.318V167.482H166.598V173.996C166.598 175.959 167.516 177.004 169.322 177.004C171.285 177.004 172.477 175.725 172.477 173.732V167.482H173.756ZM177.066 178V167.482H178.287V169.377H178.414C178.873 168.088 179.996 167.307 181.451 167.307C182.926 167.307 183.98 168.117 184.43 169.377H184.557C185.094 168.117 186.324 167.307 187.838 167.307C189.947 167.307 191.168 168.576 191.168 170.803V178H189.889V171.096C189.889 169.377 189.039 168.459 187.457 168.459C185.836 168.459 184.752 169.699 184.752 171.33V178H183.473V170.959C183.473 169.445 182.506 168.459 181.051 168.459C179.527 168.459 178.346 169.826 178.346 171.545V178H177.066ZM203.707 178.176C201.021 178.176 199.254 176.008 199.254 172.746C199.254 169.484 201.041 167.307 203.707 167.307C205.309 167.307 206.656 168.156 207.252 169.533H207.369V163.293H208.648V178H207.418V175.9H207.301C206.676 177.307 205.318 178.176 203.707 178.176ZM203.98 168.459C201.9 168.459 200.572 170.129 200.572 172.736C200.572 175.354 201.9 177.014 203.98 177.014C206.051 177.014 207.389 175.334 207.389 172.736C207.389 170.158 206.041 168.459 203.98 168.459ZM216.295 178.176C213.355 178.176 211.52 176.096 211.52 172.736C211.52 169.377 213.355 167.307 216.295 167.307C219.234 167.307 221.08 169.377 221.08 172.736C221.08 176.096 219.234 178.176 216.295 178.176ZM216.295 177.014C218.463 177.014 219.752 175.402 219.752 172.736C219.752 170.07 218.463 168.459 216.295 168.459C214.127 168.459 212.838 170.07 212.838 172.736C212.838 175.402 214.127 177.014 216.295 177.014ZM223.844 178V167.482H225.064V169.377H225.191C225.748 168.078 226.91 167.307 228.59 167.307C230.934 167.307 232.271 168.713 232.271 171.164V178H230.992V171.486C230.992 169.484 230.074 168.459 228.248 168.459C226.393 168.459 225.123 169.768 225.123 171.75V178H223.844ZM239.645 168.439C237.73 168.439 236.402 169.855 236.285 172.023H242.838C242.809 169.855 241.549 168.439 239.645 168.439ZM242.711 175.402H244.01C243.492 177.111 241.871 178.176 239.664 178.176C236.773 178.176 234.957 176.066 234.957 172.746C234.957 169.445 236.793 167.307 239.654 167.307C242.457 167.307 244.176 169.299 244.176 172.512V173.078H236.275V173.137C236.344 175.51 237.662 177.033 239.693 177.033C241.188 177.033 242.262 176.438 242.711 175.402ZM255.475 170.578H254.176C253.854 169.367 252.77 168.459 251.158 168.459C249.068 168.459 247.74 170.109 247.74 172.707C247.74 175.334 249.078 177.014 251.158 177.014C252.711 177.014 253.844 176.262 254.166 174.973H255.465C255.143 176.857 253.57 178.176 251.168 178.176C248.268 178.176 246.422 176.047 246.422 172.707C246.422 169.416 248.258 167.307 251.158 167.307C253.57 167.307 255.162 168.742 255.475 170.578ZM263.609 178V167.482H264.889V178H263.609ZM264.244 165.139C263.727 165.139 263.297 164.709 263.297 164.182C263.297 163.664 263.727 163.234 264.244 163.234C264.771 163.234 265.201 163.664 265.201 164.182C265.201 164.709 264.771 165.139 264.244 165.139ZM272.164 178.176C269.479 178.176 267.711 176.008 267.711 172.746C267.711 169.484 269.498 167.307 272.164 167.307C273.766 167.307 275.113 168.156 275.709 169.533H275.826V163.293H277.105V178H275.875V175.9H275.758C275.133 177.307 273.775 178.176 272.164 178.176ZM272.438 168.459C270.357 168.459 269.029 170.129 269.029 172.736C269.029 175.354 270.357 177.014 272.438 177.014C274.508 177.014 275.846 175.334 275.846 172.736C275.846 170.158 274.498 168.459 272.438 168.459ZM73.4434 202.176C70.7578 202.176 68.9902 200.008 68.9902 196.746C68.9902 193.484 70.7773 191.307 73.4434 191.307C75.0449 191.307 76.3926 192.156 76.9883 193.533H77.1055V187.293H78.3848V202H77.1543V199.9H77.0371C76.4121 201.307 75.0547 202.176 73.4434 202.176ZM73.7168 192.459C71.6367 192.459 70.3086 194.129 70.3086 196.736C70.3086 199.354 71.6367 201.014 73.7168 201.014C75.7871 201.014 77.125 199.334 77.125 196.736C77.125 194.158 75.7773 192.459 73.7168 192.459ZM81.8418 202V191.482H83.1211V202H81.8418ZM82.4766 189.139C81.959 189.139 81.5293 188.709 81.5293 188.182C81.5293 187.664 81.959 187.234 82.4766 187.234C83.0039 187.234 83.4336 187.664 83.4336 188.182C83.4336 188.709 83.0039 189.139 82.4766 189.139ZM89.6152 201.043C91.5 201.043 92.9355 199.754 92.9355 198.084V196.854L89.8203 197.078C88.0332 197.205 87.1738 197.869 87.1738 199.07C87.1738 200.281 88.1992 201.043 89.6152 201.043ZM89.4004 202.176C87.3398 202.176 85.8555 200.975 85.8555 199.09C85.8555 197.254 87.2129 196.189 89.6445 196.023L92.9355 195.809V194.793C92.9355 193.289 92.0273 192.449 90.3184 192.449C88.873 192.449 87.8281 193.064 87.5742 194.08H86.2754C86.5195 192.41 88.1504 191.307 90.3574 191.307C92.8281 191.307 94.2246 192.596 94.2246 194.783V202H92.9941V200.193H92.877C92.2324 201.443 90.9434 202.176 89.4004 202.176ZM97.4668 202V191.482H98.6875V193.377H98.8145C99.2734 192.088 100.396 191.307 101.852 191.307C103.326 191.307 104.381 192.117 104.83 193.377H104.957C105.494 192.117 106.725 191.307 108.238 191.307C110.348 191.307 111.568 192.576 111.568 194.803V202H110.289V195.096C110.289 193.377 109.439 192.459 107.857 192.459C106.236 192.459 105.152 193.699 105.152 195.33V202H103.873V194.959C103.873 193.445 102.906 192.459 101.451 192.459C99.9277 192.459 98.7461 193.826 98.7461 195.545V202H97.4668ZM120.182 202V191.482H121.402V193.377H121.529C121.988 192.088 123.111 191.307 124.566 191.307C126.041 191.307 127.096 192.117 127.545 193.377H127.672C128.209 192.117 129.439 191.307 130.953 191.307C133.062 191.307 134.283 192.576 134.283 194.803V202H133.004V195.096C133.004 193.377 132.154 192.459 130.572 192.459C128.951 192.459 127.867 193.699 127.867 195.33V202H126.588V194.959C126.588 193.445 125.621 192.459 124.166 192.459C122.643 192.459 121.461 193.826 121.461 195.545V202H120.182ZM140.631 201.043C142.516 201.043 143.951 199.754 143.951 198.084V196.854L140.836 197.078C139.049 197.205 138.189 197.869 138.189 199.07C138.189 200.281 139.215 201.043 140.631 201.043ZM140.416 202.176C138.355 202.176 136.871 200.975 136.871 199.09C136.871 197.254 138.229 196.189 140.66 196.023L143.951 195.809V194.793C143.951 193.289 143.043 192.449 141.334 192.449C139.889 192.449 138.844 193.064 138.59 194.08H137.291C137.535 192.41 139.166 191.307 141.373 191.307C143.844 191.307 145.24 192.596 145.24 194.783V202H144.01V200.193H143.893C143.248 201.443 141.959 202.176 140.416 202.176ZM148.58 202V187.293H149.859V202H148.58ZM157.428 192.439C155.514 192.439 154.186 193.855 154.068 196.023H160.621C160.592 193.855 159.332 192.439 157.428 192.439ZM160.494 199.402H161.793C161.275 201.111 159.654 202.176 157.447 202.176C154.557 202.176 152.74 200.066 152.74 196.746C152.74 193.445 154.576 191.307 157.438 191.307C160.24 191.307 161.959 193.299 161.959 196.512V197.078H154.059V197.137C154.127 199.51 155.445 201.033 157.477 201.033C158.971 201.033 160.045 200.438 160.494 199.402ZM164.488 194.266C164.488 192.576 166.168 191.307 168.287 191.307C170.406 191.307 171.91 192.361 172.145 194.031H170.885C170.65 193.045 169.674 192.4 168.277 192.4C166.9 192.4 165.777 193.162 165.777 194.217C165.777 195.086 166.461 195.584 167.867 195.916L169.312 196.258C171.344 196.746 172.33 197.566 172.33 199.09C172.33 200.906 170.562 202.176 168.268 202.176C165.973 202.176 164.381 201.092 164.166 199.363H165.494C165.777 200.418 166.783 201.082 168.307 201.082C169.85 201.082 171.012 200.291 171.012 199.188C171.012 198.27 170.357 197.732 168.951 197.4L167.359 197.02C165.406 196.551 164.488 195.75 164.488 194.266ZM183.414 191.482V202H182.193V200.105H182.076C181.549 201.414 180.328 202.176 178.648 202.176C176.305 202.176 174.977 200.73 174.977 198.318V191.482H176.256V197.996C176.256 199.959 177.174 201.004 178.98 201.004C180.943 201.004 182.135 199.725 182.135 197.732V191.482H183.414ZM189.869 201.043C191.754 201.043 193.189 199.754 193.189 198.084V196.854L190.074 197.078C188.287 197.205 187.428 197.869 187.428 199.07C187.428 200.281 188.453 201.043 189.869 201.043ZM189.654 202.176C187.594 202.176 186.109 200.975 186.109 199.09C186.109 197.254 187.467 196.189 189.898 196.023L193.189 195.809V194.793C193.189 193.289 192.281 192.449 190.572 192.449C189.127 192.449 188.082 193.064 187.828 194.08H186.529C186.773 192.41 188.404 191.307 190.611 191.307C193.082 191.307 194.479 192.596 194.479 194.783V202H193.248V200.193H193.131C192.486 201.443 191.197 202.176 189.654 202.176ZM201.646 202.176C198.961 202.176 197.193 200.008 197.193 196.746C197.193 193.484 198.98 191.307 201.646 191.307C203.248 191.307 204.596 192.156 205.191 193.533H205.309V187.293H206.588V202H205.357V199.9H205.24C204.615 201.307 203.258 202.176 201.646 202.176ZM201.92 192.459C199.84 192.459 198.512 194.129 198.512 196.736C198.512 199.354 199.84 201.014 201.92 201.014C203.99 201.014 205.328 199.334 205.328 196.736C205.328 194.158 203.98 192.459 201.92 192.459ZM213.131 201.043C215.016 201.043 216.451 199.754 216.451 198.084V196.854L213.336 197.078C211.549 197.205 210.689 197.869 210.689 199.07C210.689 200.281 211.715 201.043 213.131 201.043ZM212.916 202.176C210.855 202.176 209.371 200.975 209.371 199.09C209.371 197.254 210.729 196.189 213.16 196.023L216.451 195.809V194.793C216.451 193.289 215.543 192.449 213.834 192.449C212.389 192.449 211.344 193.064 211.09 194.08H209.791C210.035 192.41 211.666 191.307 213.873 191.307C216.344 191.307 217.74 192.596 217.74 194.783V202H216.51V200.193H216.393C215.748 201.443 214.459 202.176 212.916 202.176ZM222.232 202.078C221.656 202.078 221.197 201.619 221.197 201.053C221.197 200.477 221.656 200.018 222.232 200.018C222.809 200.018 223.258 200.477 223.258 201.053C223.258 201.619 222.809 202.078 222.232 202.078Z" fill="white"/>
</svg>
