<svg width="70" height="70" viewBox="0 0 70 70" fill="none" xmlns="http://www.w3.org/2000/svg">
<g id="ant-design:picture-filled">
<path id="Vector" d="M63.4375 10.9375H6.5625C5.35254 10.9375 4.375 11.915 4.375 13.125V56.875C4.375 58.085 5.35254 59.0625 6.5625 59.0625H63.4375C64.6475 59.0625 65.625 58.085 65.625 56.875V13.125C65.625 11.915 64.6475 10.9375 63.4375 10.9375ZM23.1055 20.7812C25.5186 20.7812 27.4805 22.7432 27.4805 25.1562C27.4805 27.5693 25.5186 29.5312 23.1055 29.5312C20.6924 29.5312 18.7305 27.5693 18.7305 25.1562C18.7305 22.7432 20.6924 20.7812 23.1055 20.7812ZM58.2354 50.6611C58.1358 50.7448 58.0099 50.7908 57.8799 50.791H12.1133C11.8125 50.791 11.5664 50.5449 11.5664 50.2441C11.5664 50.1143 11.6143 49.9912 11.6963 49.8887L23.3379 36.0801C23.5293 35.8477 23.8779 35.8203 24.1104 36.0117C24.1309 36.0322 24.1582 36.0527 24.1787 36.0801L30.9736 44.1465L41.7812 31.3291C41.9727 31.0967 42.3213 31.0693 42.5537 31.2607C42.5742 31.2812 42.6016 31.3018 42.6221 31.3291L58.3174 49.8955C58.4951 50.1211 58.4678 50.4697 58.2354 50.6611Z" fill="#111111"/>
</g>
</svg>
