<svg width="90" height="90" viewBox="0 0 90 90" fill="none" xmlns="http://www.w3.org/2000/svg">
<path d="M0.459439 0.459439H82C86.1645 0.459439 89.5406 3.83546 89.5406 8V89.5406H8C3.83546 89.5406 0.459439 86.1645 0.459439 82V0.459439Z" fill="#D1FECA" stroke="#224121" stroke-width="0.918878"/>
<path d="M60.9775 37.4745C60.9775 36.4139 61.3988 35.3966 62.1488 34.6466C62.8988 33.8966 63.916 33.4753 64.9767 33.4753V25.4768C64.9767 24.4162 64.5554 23.3989 63.8054 22.6489C63.0554 21.8989 62.0381 21.4776 60.9775 21.4776H28.9836C27.9229 21.4776 26.9057 21.8989 26.1557 22.6489C25.4057 23.3989 24.9844 24.4162 24.9844 25.4768V33.4753C26.045 33.4753 27.0623 33.8966 27.8123 34.6466C28.5623 35.3966 28.9836 36.4139 28.9836 37.4745C28.9836 38.5352 28.5623 39.5524 27.8123 40.3024C27.0623 41.0524 26.045 41.4738 24.9844 41.4738V49.4722C24.9844 50.5329 25.4057 51.5501 26.1557 52.3001C26.9057 53.0501 27.9229 53.4715 28.9836 53.4715H60.9775C62.0381 53.4715 63.0554 53.0501 63.8054 52.3001C64.5554 51.5501 64.9767 50.5329 64.9767 49.4722V41.4738C63.916 41.4738 62.8988 41.0524 62.1488 40.3024C61.3988 39.5524 60.9775 38.5352 60.9775 37.4745Z" fill="#38AA34"/>
<path fill-rule="evenodd" clip-rule="evenodd" d="M51.5251 32.7516C51.7179 32.9444 51.8262 33.2059 51.8262 33.4786C51.8262 33.7513 51.7179 34.0128 51.5251 34.2057L43.8171 41.9137C43.7152 42.0156 43.5943 42.0964 43.4612 42.1515C43.3281 42.2067 43.1854 42.2351 43.0414 42.2351C42.8973 42.2351 42.7546 42.2067 42.6215 42.1515C42.4884 42.0964 42.3675 42.0156 42.2656 41.9137L38.436 38.0847C38.3377 37.9898 38.2594 37.8764 38.2055 37.7509C38.1516 37.6254 38.1232 37.4905 38.1221 37.3539C38.1209 37.2174 38.1469 37.082 38.1986 36.9556C38.2503 36.8292 38.3267 36.7144 38.4232 36.6178C38.5198 36.5213 38.6346 36.4449 38.761 36.3932C38.8874 36.3415 39.0228 36.3155 39.1593 36.3167C39.2959 36.3179 39.4308 36.3462 39.5563 36.4001C39.6817 36.454 39.7952 36.5324 39.8901 36.6306L43.041 39.7815L50.0703 32.7516C50.1658 32.656 50.2792 32.5802 50.404 32.5285C50.5288 32.4767 50.6626 32.4501 50.7977 32.4501C50.9328 32.4501 51.0666 32.4767 51.1914 32.5285C51.3162 32.5802 51.4296 32.656 51.5251 32.7516Z" fill="white"/>
<path d="M23.1631 68.5211C22.6935 68.5211 22.2717 68.4433 21.8978 68.2878C21.5239 68.1323 21.2039 67.9064 20.9377 67.6103C20.6745 67.3142 20.4726 66.9567 20.332 66.538C20.1944 66.1162 20.1256 65.6421 20.1256 65.1157C20.1256 64.5893 20.1944 64.1167 20.332 63.6979C20.4726 63.2791 20.6745 62.9217 20.9377 62.6256C21.2039 62.3295 21.5239 62.1036 21.8978 61.9481C22.2717 61.7925 22.6935 61.7148 23.1631 61.7148C23.546 61.7148 23.9019 61.7746 24.2309 61.8942C24.5629 62.0139 24.8546 62.1829 25.1058 62.4012C25.3571 62.6166 25.5575 62.8723 25.7071 63.1685C25.8596 63.4646 25.9478 63.7891 25.9718 64.1421H24.6527C24.6108 63.8938 24.5211 63.677 24.3835 63.4915C24.2459 63.3061 24.0724 63.1625 23.863 63.0608C23.6536 62.9591 23.4203 62.9082 23.1631 62.9082C22.8221 62.9082 22.5275 62.998 22.2792 63.1774C22.0339 63.3539 21.844 63.6082 21.7094 63.9402C21.5778 64.2692 21.512 64.661 21.512 65.1157C21.512 65.5704 21.5793 65.9637 21.7139 66.2957C21.8485 66.6247 22.0384 66.879 22.2837 67.0584C22.532 67.2379 22.8266 67.3276 23.1676 67.3276C23.4278 67.3276 23.6611 67.2798 23.8675 67.1841C24.0769 67.0884 24.2489 66.9538 24.3835 66.7803C24.5211 66.6038 24.6123 66.3959 24.6572 66.1566H25.9763C25.9493 66.5066 25.8611 66.8266 25.7115 67.1168C25.562 67.4039 25.3616 67.6537 25.1103 67.8661C24.8621 68.0754 24.5719 68.237 24.2399 68.3506C23.9109 68.4643 23.5519 68.5211 23.1631 68.5211ZM29.2874 68.4628C28.7819 68.4628 28.3467 68.3596 27.9818 68.1532C27.6169 67.9468 27.3372 67.6507 27.1428 67.2648C26.9484 66.879 26.8512 66.4168 26.8512 65.8784C26.8512 65.346 26.9484 64.8869 27.1428 64.501C27.3402 64.1152 27.6214 63.819 27.9863 63.6127C28.3512 63.4033 28.7849 63.2986 29.2874 63.2986C29.79 63.2986 30.2222 63.4018 30.5841 63.6082C30.949 63.8146 31.2302 64.1107 31.4276 64.4965C31.625 64.8824 31.7237 65.343 31.7237 65.8784C31.7237 66.4168 31.6265 66.879 31.4321 67.2648C31.2377 67.6507 30.958 67.9468 30.5931 68.1532C30.2282 68.3596 29.793 68.4628 29.2874 68.4628ZM29.2874 67.3949C29.6344 67.3949 29.9036 67.2618 30.0951 66.9956C30.2865 66.7294 30.3822 66.357 30.3822 65.8784C30.3822 65.4028 30.285 65.0319 30.0906 64.7657C29.8991 64.4995 29.6314 64.3664 29.2874 64.3664C28.9405 64.3664 28.6713 64.4995 28.4798 64.7657C28.2884 65.0319 28.1927 65.4028 28.1927 65.8784C28.1927 66.36 28.2869 66.7339 28.4754 67.0001C28.6668 67.2633 28.9375 67.3949 29.2874 67.3949ZM32.7916 68.3551V63.4063H34.0568V64.2139H34.1376C34.2393 63.9297 34.4113 63.7069 34.6536 63.5454C34.8958 63.3808 35.18 63.2986 35.506 63.2986C35.853 63.2986 36.1431 63.3793 36.3764 63.5409C36.6098 63.7024 36.7758 63.9267 36.8745 64.2139H36.9552C37.033 64.0314 37.1437 63.8714 37.2873 63.7338C37.4338 63.5962 37.6058 63.49 37.8032 63.4152C38.0006 63.3375 38.2145 63.2986 38.4448 63.2986C38.7738 63.2986 39.058 63.3659 39.2973 63.5005C39.5366 63.6351 39.7205 63.828 39.8492 64.0793C39.9808 64.3275 40.0466 64.6207 40.0466 64.9587V68.3551H38.7409V65.3041C38.7409 64.7179 38.4658 64.4247 37.9154 64.4247C37.7389 64.4247 37.5849 64.4636 37.4533 64.5414C37.3246 64.6192 37.2244 64.7254 37.1526 64.86C37.0809 64.9946 37.045 65.1501 37.045 65.3266V68.3551H35.7887V65.2503C35.7887 64.9871 35.7169 64.7837 35.5733 64.6401C35.4298 64.4965 35.2293 64.4247 34.9721 64.4247C34.8016 64.4247 34.6506 64.4666 34.519 64.5504C34.3873 64.6311 34.2841 64.7433 34.2094 64.8869C34.1346 65.0275 34.0972 65.1905 34.0972 65.3759V68.3551H32.7916ZM44.1743 63.3255C44.5901 63.3255 44.9491 63.4272 45.2512 63.6306C45.5533 63.834 45.7851 64.1271 45.9466 64.51C46.1111 64.8899 46.1934 65.346 46.1934 65.8784C46.1934 66.4109 46.1126 66.8685 45.9511 67.2514C45.7896 67.6312 45.5592 67.9229 45.2601 68.1263C44.964 68.3297 44.6096 68.4314 44.1968 68.4314C43.8438 68.4314 43.5372 68.3581 43.277 68.2115C43.0168 68.065 42.8253 67.8601 42.7027 67.5968H42.6219V69.9972H41.3163V63.4063H42.5816V64.2184H42.6623C42.7969 63.9402 42.9973 63.7218 43.2635 63.5633C43.5298 63.4048 43.8334 63.3255 44.1743 63.3255ZM43.7302 67.3411C44.0831 67.3411 44.3583 67.2125 44.5557 66.9552C44.7531 66.695 44.8518 66.3361 44.8518 65.8784C44.8518 65.5763 44.807 65.3161 44.7172 65.0978C44.6275 64.8794 44.4989 64.7119 44.3314 64.5952C44.1639 64.4786 43.965 64.4203 43.7347 64.4203C43.5043 64.4203 43.3039 64.4801 43.1334 64.5997C42.9659 64.7164 42.8358 64.8839 42.7431 65.1022C42.6534 65.3206 42.6085 65.5808 42.6085 65.8829C42.6085 66.185 42.6534 66.4453 42.7431 66.6636C42.8358 66.882 42.9659 67.0495 43.1334 67.1661C43.3009 67.2828 43.4998 67.3411 43.7302 67.3411ZM47.3016 68.3551V61.5174H48.6072V68.3551H47.3016ZM52.1068 64.2991C51.9064 64.2991 51.727 64.344 51.5684 64.4337C51.4129 64.5205 51.2873 64.6446 51.1916 64.8061C51.0988 64.9646 51.045 65.1501 51.03 65.3625H53.1388C53.1238 65.0364 53.0236 64.7777 52.8382 64.5863C52.6557 64.3948 52.4119 64.2991 52.1068 64.2991ZM53.1657 66.9463H54.3816C54.3158 67.2574 54.1812 67.5266 53.9778 67.7539C53.7774 67.9782 53.5187 68.1532 53.2016 68.2788C52.8845 68.4015 52.5241 68.4628 52.1203 68.4628C51.6178 68.4628 51.1871 68.3611 50.8281 68.1577C50.4722 67.9543 50.1985 67.6627 50.0071 67.2828C49.8186 66.8999 49.7244 66.4408 49.7244 65.9054C49.7244 65.367 49.8201 64.9033 50.0116 64.5145C50.203 64.1256 50.4767 63.8265 50.8326 63.6171C51.1886 63.4048 51.6118 63.2986 52.1024 63.2986C52.5869 63.2986 53.0027 63.3988 53.3497 63.5992C53.6966 63.7966 53.9614 64.0823 54.1438 64.4562C54.3293 64.8271 54.422 65.2742 54.422 65.7977V66.197H51.0256V66.2643C51.0345 66.6322 51.1392 66.9238 51.3396 67.1392C51.543 67.3516 51.8152 67.4578 52.1562 67.4578C52.4134 67.4578 52.6288 67.4144 52.8023 67.3276C52.9758 67.2379 53.0969 67.1108 53.1657 66.9463ZM55.8667 62.2307H57.1723V63.4556H58.1998V64.4831H57.1723V66.7085C57.1723 66.9238 57.2232 67.0824 57.3249 67.1841C57.4296 67.2858 57.5926 67.3366 57.8139 67.3366C57.9007 67.3366 57.971 67.3351 58.0248 67.3321C58.0787 67.3291 58.137 67.3247 58.1998 67.3187V68.3147C58.119 68.3297 58.0203 68.3431 57.9037 68.3551C57.79 68.3671 57.6704 68.373 57.5447 68.373C57.1439 68.373 56.8194 68.3282 56.5711 68.2384C56.3259 68.1457 56.1464 68.0007 56.0327 67.8032C55.922 67.6028 55.8667 67.3411 55.8667 67.0181V64.4831H55.095V63.4556H55.8667V62.2307ZM61.3943 64.2991C61.1939 64.2991 61.0145 64.344 60.8559 64.4337C60.7004 64.5205 60.5748 64.6446 60.4791 64.8061C60.3863 64.9646 60.3325 65.1501 60.3175 65.3625H62.4263C62.4113 65.0364 62.3111 64.7777 62.1257 64.5863C61.9432 64.3948 61.6994 64.2991 61.3943 64.2991ZM62.4532 66.9463H63.6691C63.6033 67.2574 63.4687 67.5266 63.2653 67.7539C63.0649 67.9782 62.8062 68.1532 62.4891 68.2788C62.172 68.4015 61.8116 68.4628 61.4078 68.4628C60.9053 68.4628 60.4746 68.3611 60.1156 68.1577C59.7597 67.9543 59.486 67.6627 59.2946 67.2828C59.1061 66.8999 59.0119 66.4408 59.0119 65.9054C59.0119 65.367 59.1076 64.9033 59.299 64.5145C59.4905 64.1256 59.7642 63.8265 60.1201 63.6171C60.4761 63.4048 60.8993 63.2986 61.3899 63.2986C61.8744 63.2986 62.2902 63.3988 62.6372 63.5992C62.9841 63.7966 63.2488 64.0823 63.4313 64.4562C63.6168 64.8271 63.7095 65.2742 63.7095 65.7977V66.197H60.313V66.2643C60.322 66.6322 60.4267 66.9238 60.6271 67.1392C60.8305 67.3516 61.1027 67.4578 61.4437 67.4578C61.7009 67.4578 61.9163 67.4144 62.0898 67.3276C62.2633 67.2379 62.3844 67.1108 62.4532 66.9463ZM66.5541 68.4314C66.1383 68.4314 65.7794 68.3282 65.4772 68.1218C65.1781 67.9154 64.9463 67.6208 64.7818 67.2379C64.6203 66.855 64.5395 66.4004 64.5395 65.874C64.5395 65.3505 64.6203 64.8988 64.7818 64.519C64.9463 64.1361 65.1781 63.8415 65.4772 63.6351C65.7794 63.4287 66.1383 63.3255 66.5541 63.3255C66.8891 63.3255 67.1867 63.4033 67.4469 63.5588C67.7071 63.7114 67.9016 63.9237 68.0302 64.1959H68.1065V61.5174H69.4121V68.3551H68.1468V67.5789H68.0661C67.9345 67.8451 67.7356 68.0545 67.4693 68.207C67.2031 68.3566 66.898 68.4314 66.5541 68.4314ZM66.9982 64.4203C66.7649 64.4203 66.5645 64.4786 66.397 64.5952C66.2325 64.7119 66.1054 64.8794 66.0157 65.0978C65.9259 65.3161 65.881 65.5763 65.881 65.8784C65.881 66.3361 65.9798 66.695 66.1772 66.9552C66.3746 67.2125 66.6483 67.3411 66.9982 67.3411C67.2315 67.3411 67.432 67.2828 67.5995 67.1661C67.767 67.0495 67.8956 66.882 67.9853 66.6636C68.0751 66.4453 68.1199 66.185 68.1199 65.8829C68.1199 65.5808 68.0751 65.3206 67.9853 65.1022C67.8956 64.8839 67.767 64.7164 67.5995 64.5997C67.432 64.4801 67.2315 64.4203 66.9982 64.4203Z" fill="#142213"/>
</svg>
