<svg width="70" height="70" viewBox="0 0 70 70" fill="none" xmlns="http://www.w3.org/2000/svg">
<g id="ic:round-email">
<path id="Vector" d="M58.3335 11.6667H11.6668C8.4585 11.6667 5.86266 14.2917 5.86266 17.5001L5.8335 52.5001C5.8335 55.7084 8.4585 58.3334 11.6668 58.3334H58.3335C61.5418 58.3334 64.1668 55.7084 64.1668 52.5001V17.5001C64.1668 14.2917 61.5418 11.6667 58.3335 11.6667ZM57.1668 24.0626L36.546 36.9542C35.6127 37.5376 34.3877 37.5376 33.4543 36.9542L12.8335 24.0626C12.541 23.8984 12.2849 23.6766 12.0807 23.4106C11.8764 23.1446 11.7283 22.8398 11.6452 22.5149C11.5621 22.19 11.5458 21.8516 11.5973 21.5201C11.6488 21.1887 11.767 20.8712 11.9447 20.5868C12.1225 20.3024 12.3561 20.057 12.6314 19.8655C12.9068 19.674 13.2181 19.5403 13.5466 19.4726C13.8751 19.4049 14.2139 19.4046 14.5425 19.4716C14.8712 19.5386 15.1828 19.6716 15.4585 19.8626L35.0002 32.0834L54.5418 19.8626C54.8176 19.6716 55.1292 19.5386 55.4578 19.4716C55.7864 19.4046 56.1252 19.4049 56.4537 19.4726C56.7822 19.5403 57.0935 19.674 57.3689 19.8655C57.6442 20.057 57.8778 20.3024 58.0556 20.5868C58.2333 20.8712 58.3516 21.1887 58.403 21.5201C58.4545 21.8516 58.4382 22.19 58.3552 22.5149C58.2721 22.8398 58.1239 23.1446 57.9197 23.4106C57.7154 23.6766 57.4593 23.8984 57.1668 24.0626Z" fill="white"/>
</g>
</svg>
