<svg width="70" height="70" viewBox="0 0 70 70" fill="none" xmlns="http://www.w3.org/2000/svg">
<g id="material-symbols:article">
<path id="Vector" d="M14.5833 61.25C12.9792 61.25 11.6064 60.6793 10.465 59.5379C9.32361 58.3965 8.75194 57.0228 8.75 55.4167V14.5833C8.75 12.9792 9.32167 11.6064 10.465 10.465C11.6083 9.32361 12.9811 8.75194 14.5833 8.75H55.4167C57.0208 8.75 58.3946 9.32167 59.5379 10.465C60.6812 11.6083 61.2519 12.9811 61.25 14.5833V55.4167C61.25 57.0208 60.6793 58.3946 59.5379 59.5379C58.3965 60.6812 57.0228 61.2519 55.4167 61.25H14.5833ZM20.4167 49.5833H40.8333V43.75H20.4167V49.5833ZM20.4167 37.9167H49.5833V32.0833H20.4167V37.9167ZM20.4167 26.25H49.5833V20.4167H20.4167V26.25Z" fill="#142213"/>
</g>
</svg>
