<svg width="71" height="70" viewBox="0 0 71 70" fill="none" xmlns="http://www.w3.org/2000/svg">
<g id="mdi:address-marker">
<path id="Vector" d="M35.5002 33.5416C33.5663 33.5416 31.7116 32.7734 30.3442 31.4059C28.9767 30.0385 28.2085 28.1838 28.2085 26.2499C28.2085 24.316 28.9767 22.4614 30.3442 21.0939C31.7116 19.7265 33.5663 18.9583 35.5002 18.9583C37.434 18.9583 39.2887 19.7265 40.6561 21.0939C42.0236 22.4614 42.7918 24.316 42.7918 26.2499C42.7918 27.2075 42.6032 28.1557 42.2368 29.0403C41.8703 29.925 41.3332 30.7288 40.6561 31.4059C39.9791 32.083 39.1752 32.6201 38.2906 32.9865C37.4059 33.353 36.4577 33.5416 35.5002 33.5416ZM35.5002 5.83325C30.0853 5.83325 24.8923 7.98429 21.0634 11.8132C17.2345 15.642 15.0835 20.8351 15.0835 26.2499C15.0835 41.5624 35.5002 64.1666 35.5002 64.1666C35.5002 64.1666 55.9168 41.5624 55.9168 26.2499C55.9168 20.8351 53.7658 15.642 49.9369 11.8132C46.1081 7.98429 40.915 5.83325 35.5002 5.83325Z" fill="white"/>
</g>
</svg>
