<svg width="70" height="70" viewBox="0 0 70 70" fill="none" xmlns="http://www.w3.org/2000/svg">
<g id="mingcute:ticket-fill">
<g id="Group">
<path id="Vector" fill-rule="evenodd" clip-rule="evenodd" d="M37.9168 11.6666C38.6312 11.6667 39.3207 11.929 39.8546 12.4037C40.3884 12.8784 40.7295 13.5326 40.8131 14.242L40.8335 14.5833C40.8343 15.3267 41.119 16.0417 41.6293 16.5823C42.1396 17.1228 42.8371 17.4481 43.5792 17.4917C44.3214 17.5353 45.0521 17.2938 45.6222 16.8167C46.1922 16.3395 46.5586 15.6627 46.6464 14.9245L46.6668 14.5833C46.6668 13.8097 46.9741 13.0679 47.5211 12.5209C48.0681 11.9739 48.8099 11.6666 49.5835 11.6666H55.4168C57.7375 11.6666 59.9631 12.5885 61.604 14.2294C63.245 15.8704 64.1668 18.096 64.1668 20.4166V49.5833C64.1668 51.9039 63.245 54.1295 61.604 55.7705C59.9631 57.4114 57.7375 58.3333 55.4168 58.3333H49.5835C48.8691 58.3332 48.1796 58.0709 47.6457 57.5962C47.1119 57.1215 46.7708 56.4674 46.6872 55.7579L46.6668 55.4166C46.666 54.6732 46.3813 53.9582 45.871 53.4176C45.3607 52.8771 44.6632 52.5518 43.9211 52.5082C43.179 52.4646 42.4482 52.7061 41.8782 53.1832C41.3081 53.6604 40.9417 54.3372 40.8539 55.0754L40.8335 55.4166C40.8335 56.1902 40.5262 56.932 39.9792 57.479C39.4322 58.026 38.6904 58.3333 37.9168 58.3333H14.5835C12.2629 58.3333 10.0373 57.4114 8.39631 55.7705C6.75537 54.1295 5.8335 51.9039 5.8335 49.5833V20.4166C5.8335 18.096 6.75537 15.8704 8.39631 14.2294C10.0373 12.5885 12.2629 11.6666 14.5835 11.6666H37.9168ZM43.7502 37.9166C42.9766 37.9166 42.2347 38.2239 41.6878 38.7709C41.1408 39.3179 40.8335 40.0597 40.8335 40.8333V43.75C40.8335 44.5235 41.1408 45.2654 41.6878 45.8124C42.2347 46.3593 42.9766 46.6666 43.7502 46.6666C44.5237 46.6666 45.2656 46.3593 45.8126 45.8124C46.3595 45.2654 46.6668 44.5235 46.6668 43.75V40.8333C46.6668 40.0597 46.3595 39.3179 45.8126 38.7709C45.2656 38.2239 44.5237 37.9166 43.7502 37.9166ZM43.7502 23.3333C43.0358 23.3334 42.3463 23.5957 41.8124 24.0704C41.2786 24.5451 40.9375 25.1992 40.8539 25.9087L40.8335 26.25V29.1666C40.8343 29.91 41.119 30.6251 41.6293 31.1656C42.1396 31.7062 42.8371 32.0315 43.5792 32.075C44.3214 32.1186 45.0521 31.8772 45.6222 31.4C46.1922 30.9229 46.5586 30.2461 46.6464 29.5079L46.6668 29.1666V26.25C46.6668 25.4764 46.3595 24.7345 45.8126 24.1876C45.2656 23.6406 44.5237 23.3333 43.7502 23.3333Z" fill="#142213"/>
</g>
</g>
</svg>
