<svg width="90" height="90" viewBox="0 0 90 90" fill="none" xmlns="http://www.w3.org/2000/svg">
<path d="M0.459439 0.459439H82C86.1645 0.459439 89.5406 3.83546 89.5406 8V89.5406H8C3.83546 89.5406 0.459439 86.1645 0.459439 82V0.459439Z" fill="#FDFECA" stroke="#3D3C2A" stroke-width="0.918878"/>
<path d="M15 15H67C71.4183 15 75 18.5817 75 23V75H15V15Z" fill="#FDFECA"/>
<path d="M26.8153 61.8808H29.5163C29.8483 61.8808 30.1519 61.9346 30.4271 62.0423C30.7023 62.147 30.9386 62.298 31.136 62.4955C31.3364 62.6929 31.4904 62.9292 31.5981 63.2044C31.7058 63.4795 31.7596 63.7846 31.7596 64.1196C31.7596 64.4517 31.7028 64.7553 31.5891 65.0305C31.4785 65.3026 31.3199 65.5374 31.1135 65.7349C30.9101 65.9293 30.6664 66.0803 30.3822 66.188C30.101 66.2927 29.79 66.3451 29.449 66.3451H28.1703V68.3551H26.8153V61.8808ZM28.1703 62.9935V65.2458H29.1528C29.5417 65.2458 29.8438 65.1501 30.0592 64.9587C30.2745 64.7642 30.3822 64.4861 30.3822 64.1241C30.3822 63.7562 30.276 63.4766 30.0636 63.2851C29.8513 63.0907 29.5492 62.9935 29.1573 62.9935H28.1703ZM34.8824 64.2991C34.682 64.2991 34.5025 64.344 34.344 64.4337C34.1884 64.5205 34.0628 64.6446 33.9671 64.8061C33.8744 64.9646 33.8205 65.1501 33.8056 65.3625H35.9143C35.8994 65.0364 35.7992 64.7777 35.6137 64.5863C35.4312 64.3948 35.1875 64.2991 34.8824 64.2991ZM35.9412 66.9463H37.1571C37.0913 67.2574 36.9567 67.5266 36.7533 67.7539C36.5529 67.9782 36.2942 68.1532 35.9771 68.2788C35.6601 68.4015 35.2996 68.4628 34.8958 68.4628C34.3933 68.4628 33.9626 68.3611 33.6037 68.1577C33.2477 67.9543 32.974 67.6627 32.7826 67.2828C32.5942 66.8999 32.4999 66.4408 32.4999 65.9054C32.4999 65.367 32.5956 64.9033 32.7871 64.5145C32.9785 64.1256 33.2522 63.8265 33.6081 63.6171C33.9641 63.4048 34.3873 63.2986 34.8779 63.2986C35.3625 63.2986 35.7782 63.3988 36.1252 63.5992C36.4722 63.7966 36.7369 64.0823 36.9193 64.4562C37.1048 64.8271 37.1975 65.2742 37.1975 65.7977V66.197H33.8011V66.2643C33.81 66.6322 33.9147 66.9238 34.1151 67.1392C34.3185 67.3516 34.5907 67.4578 34.9317 67.4578C35.189 67.4578 35.4043 67.4144 35.5778 67.3276C35.7513 67.2379 35.8724 67.1108 35.9412 66.9463ZM38.2698 68.3551V63.4063H39.5351V64.2004H39.6159C39.7295 63.9222 39.9105 63.7024 40.1587 63.5409C40.407 63.3793 40.7136 63.2986 41.0785 63.2986C41.6289 63.2986 42.0476 63.4601 42.3348 63.7831C42.6249 64.1062 42.77 64.5638 42.77 65.1561V68.3551H41.4644V65.4657C41.4644 65.1247 41.3896 64.8659 41.24 64.6895C41.0905 64.513 40.8617 64.4247 40.5536 64.4247C40.3532 64.4247 40.1797 64.4696 40.0331 64.5593C39.8866 64.6491 39.7729 64.7747 39.6921 64.9362C39.6144 65.0978 39.5755 65.2862 39.5755 65.5016V68.3551H38.2698ZM45.812 68.4314C45.3962 68.4314 45.0373 68.3282 44.7352 68.1218C44.4361 67.9154 44.2043 67.6208 44.0397 67.2379C43.8782 66.855 43.7975 66.4004 43.7975 65.874C43.7975 65.3505 43.8782 64.8988 44.0397 64.519C44.2043 64.1361 44.4361 63.8415 44.7352 63.6351C45.0373 63.4287 45.3962 63.3255 45.812 63.3255C46.147 63.3255 46.4446 63.4033 46.7049 63.5588C46.9651 63.7114 47.1595 63.9237 47.2881 64.1959H47.3644V61.5174H48.67V68.3551H47.4048V67.5789H47.324C47.1924 67.8451 46.9935 68.0545 46.7273 68.207C46.4611 68.3566 46.156 68.4314 45.812 68.4314ZM46.2562 64.4203C46.0229 64.4203 45.8225 64.4786 45.655 64.5952C45.4904 64.7119 45.3633 64.8794 45.2736 65.0978C45.1839 65.3161 45.139 65.5763 45.139 65.8784C45.139 66.3361 45.2377 66.695 45.4351 66.9552C45.6325 67.2125 45.9062 67.3411 46.2562 67.3411C46.4895 67.3411 46.6899 67.2828 46.8574 67.1661C47.0249 67.0495 47.1535 66.882 47.2433 66.6636C47.333 66.4453 47.3779 66.185 47.3779 65.8829C47.3779 65.5808 47.333 65.3206 47.2433 65.1022C47.1535 64.8839 47.0249 64.7164 46.8574 64.5997C46.6899 64.4801 46.4895 64.4203 46.2562 64.4203ZM50.034 68.3551V63.4063H51.3396V68.3551H50.034ZM50.689 62.666C50.5544 62.666 50.4303 62.6331 50.3167 62.5672C50.206 62.4985 50.1162 62.4087 50.0474 62.298C49.9816 62.1844 49.9487 62.0573 49.9487 61.9167C49.9487 61.7761 49.9816 61.6505 50.0474 61.5398C50.1162 61.4261 50.206 61.3364 50.3167 61.2706C50.4303 61.2048 50.5544 61.1719 50.689 61.1719C50.8266 61.1719 50.9508 61.2048 51.0614 61.2706C51.1721 61.3364 51.2604 61.4261 51.3262 61.5398C51.395 61.6505 51.4294 61.7761 51.4294 61.9167C51.4294 62.0573 51.395 62.1844 51.3262 62.298C51.2604 62.4087 51.1721 62.4985 51.0614 62.5672C50.9508 62.6331 50.8266 62.666 50.689 62.666ZM52.6632 68.3551V63.4063H53.9285V64.2004H54.0092C54.1229 63.9222 54.3038 63.7024 54.5521 63.5409C54.8004 63.3793 55.107 63.2986 55.4719 63.2986C56.0222 63.2986 56.441 63.4601 56.7282 63.7831C57.0183 64.1062 57.1634 64.5638 57.1634 65.1561V68.3551H55.8577V65.4657C55.8577 65.1247 55.783 64.8659 55.6334 64.6895C55.4838 64.513 55.255 64.4247 54.9469 64.4247C54.7465 64.4247 54.573 64.4696 54.4265 64.5593C54.2799 64.6491 54.1662 64.7747 54.0855 64.9362C54.0077 65.0978 53.9688 65.2862 53.9688 65.5016V68.3551H52.6632ZM60.6316 67.2514C60.8679 67.2514 61.0698 67.1945 61.2373 67.0809C61.4078 66.9642 61.5379 66.8012 61.6276 66.5918C61.7174 66.3795 61.7622 66.1282 61.7622 65.8381C61.7622 65.5479 61.7159 65.2967 61.6232 65.0843C61.5334 64.8719 61.4033 64.7089 61.2328 64.5952C61.0653 64.4786 60.8649 64.4203 60.6316 64.4203C60.3983 64.4203 60.1979 64.4786 60.0304 64.5952C59.8659 64.7089 59.7387 64.8719 59.649 65.0843C59.5623 65.2967 59.5189 65.5464 59.5189 65.8336C59.5189 66.2703 59.6161 66.6158 59.8105 66.87C60.005 67.1242 60.2786 67.2514 60.6316 67.2514ZM60.6136 70.2305C60.1769 70.2305 59.7926 70.1692 59.4606 70.0466C59.1315 69.9269 58.8698 69.7579 58.6754 69.5396C58.484 69.3242 58.3748 69.0715 58.3479 68.7813H59.64C59.6729 68.9339 59.7776 69.055 59.9541 69.1448C60.1306 69.2345 60.3594 69.2794 60.6406 69.2794C60.9905 69.2794 61.2627 69.2016 61.4572 69.0461C61.6516 68.8935 61.7488 68.6781 61.7488 68.4V67.4847H61.668C61.5304 67.7449 61.3345 67.9438 61.0803 68.0814C60.826 68.216 60.5254 68.2833 60.1784 68.2833C59.7687 68.2833 59.4127 68.1831 59.1106 67.9827C58.8115 67.7823 58.5812 67.4996 58.4196 67.1347C58.2581 66.7668 58.1774 66.3346 58.1774 65.8381C58.1774 65.3266 58.2581 64.8824 58.4196 64.5055C58.5842 64.1286 58.8175 63.8385 59.1196 63.6351C59.4247 63.4287 59.7866 63.3255 60.2054 63.3255C60.5404 63.3255 60.841 63.4033 61.1072 63.5588C61.3764 63.7143 61.5768 63.9282 61.7084 64.2004H61.7892V63.4063H63.0544V68.3372C63.0544 68.726 62.9542 69.061 62.7538 69.3422C62.5564 69.6263 62.2737 69.8447 61.9058 69.9972C61.5409 70.1528 61.1102 70.2305 60.6136 70.2305Z" fill="#222013"/>
<path d="M56.6138 43.3167L50.5305 34.0833L56.1471 26.7167C56.8862 25.7175 57.2889 24.5095 57.2971 23.2667V20.45C57.2958 20.1706 57.2392 19.8941 57.1305 19.6367C57.0218 19.3792 56.8631 19.1458 56.6638 18.95C56.4676 18.7522 56.2338 18.5958 55.9762 18.4899C55.7186 18.3839 55.4423 18.3307 55.1638 18.3333H34.8805C34.6019 18.3311 34.3256 18.3844 34.0678 18.4899C33.81 18.5955 33.5758 18.7514 33.3788 18.9484C33.1818 19.1453 33.026 19.3796 32.9204 19.6374C32.8148 19.8952 32.7616 20.1714 32.7638 20.45V23.2333C32.7674 24.4718 33.1707 25.6759 33.9138 26.6667L39.5138 34.3L33.3971 43.3167C32.696 44.3615 32.3672 45.6121 32.4638 46.8667L32.6471 49.7C32.6894 50.2305 32.9281 50.726 33.3165 51.0898C33.7049 51.4535 34.215 51.6592 34.7471 51.6667H55.4305C55.9233 51.622 56.3841 51.4034 56.7305 51.05C57.0885 50.6866 57.3069 50.2086 57.3471 49.7L57.5305 46.9C57.645 45.6358 57.3213 44.3706 56.6138 43.3167ZM49.4305 46.9833H40.7138C40.2718 46.9833 39.8478 46.8077 39.5353 46.4952C39.2227 46.1826 39.0471 45.7587 39.0471 45.3167C39.0471 44.8747 39.2227 44.4507 39.5353 44.1382C39.8478 43.8256 40.2718 43.65 40.7138 43.65H49.5138C49.9558 43.65 50.3797 43.8256 50.6923 44.1382C51.0049 44.4507 51.1805 44.8747 51.1805 45.3167C51.1805 45.7587 51.0049 46.1826 50.6923 46.4952C50.3797 46.8077 49.9558 46.9833 49.5138 46.9833H49.4305Z" fill="#C6C032"/>
</svg>
