<svg width="70" height="70" viewBox="0 0 70 70" fill="none" xmlns="http://www.w3.org/2000/svg">
<g id="solar:phone-bold">
<path id="Vector" d="M48.2882 37.6426L46.9611 38.9639C46.9611 38.9639 43.8024 42.1022 35.1836 33.533C26.5649 24.9639 29.7236 21.8255 29.7236 21.8255L30.5578 20.9914C32.6199 18.9439 32.8153 15.6539 31.0157 13.2505L27.3407 8.34177C25.1124 5.36677 20.8103 4.97302 18.2582 7.51052L13.6791 12.0605C12.4161 13.3205 11.5703 14.948 11.6724 16.7564C11.9349 21.3851 14.0291 31.3397 25.7074 42.9539C38.0945 55.268 49.7174 55.758 54.4686 55.3147C55.9736 55.1747 57.2803 54.4105 58.3332 53.3605L62.4749 49.2422C65.2749 46.4626 64.4874 41.6939 60.9057 39.7484L55.3349 36.718C52.9841 35.4434 50.1257 35.8168 48.2882 37.6426Z" fill="white"/>
</g>
</svg>
